<svg xmlns="http://www.w3.org/2000/svg" viewBox="0 0 512 512"><defs><style>.cls-1{fill:#f0c85c;}.cls-2{fill:#683027;}.cls-3{fill:#edcf85;}.cls-4{fill:#2b3060;}.cls-5{fill:#242a4c;}.cls-6{fill:#334079;}.cls-7{fill:#c2dff0;}.cls-10,.cls-11,.cls-12,.cls-13,.cls-8,.cls-9{fill:none;stroke-linejoin:round;stroke-width:10px;}.cls-11,.cls-8{stroke:#c6668f;}.cls-10,.cls-9{stroke:#d9a0bd;}.cls-10,.cls-11{stroke-linecap:round;}.cls-12{stroke:#ce404a;}.cls-13{stroke:#fff;}</style></defs><title>Artificial Intelligence</title><g id="BULINE"><circle class="cls-1" cx="256" cy="256" r="256"/></g><g id="Icons"><path class="cls-2" d="M462.92,406.76a256,256,0,0,1-413.84,0Z"/><path class="cls-3" d="M456.67,97A202.59,202.59,0,0,1,384.57,231q-1.9,1.59-3.86,3.12-3.6,2.85-7.34,5.53a202.28,202.28,0,0,1-39.55,22.17q-3.94,1.67-8,3.15a198.07,198.07,0,0,1-24.15,7.29,202.86,202.86,0,0,1-46.35,5.33q-10.16,0-20.06-1a200.15,200.15,0,0,1-30.66-5.42,201.34,201.34,0,0,1-66.38-30.87c-.31-.21-.62-.44-.93-.66q-3.74-2.67-7.32-5.52c-1.31-1-2.6-2.07-3.88-3.13a203.7,203.7,0,0,1-48.45-58.68A201.12,201.12,0,0,1,54.18,98.5,256,256,0,0,1,456.67,97Z"/><path class="cls-4" d="M60.66,379.13H452a7.82,7.82,0,0,1,7.82,7.82v6.48a33.65,33.65,0,0,1-33.65,33.65H86.49a33.65,33.65,0,0,1-33.65-33.65V387a7.82,7.82,0,0,1,7.82-7.82Z"/><path class="cls-5" d="M209.83,378.64h93a0,0,0,0,1,0,0v0A21.79,21.79,0,0,1,281,400.43H231.62a21.79,21.79,0,0,1-21.79-21.79v0a0,0,0,0,1,0,0Z"/><path class="cls-6" d="M99.14,147.6H413.52A21.48,21.48,0,0,1,435,169.08V379.13a0,0,0,0,1,0,0H77.66a0,0,0,0,1,0,0V169.08A21.48,21.48,0,0,1,99.14,147.6Z"/><path class="cls-7" d="M105.29,168.61H405.4a8.45,8.45,0,0,1,8.45,8.45V379.13a0,0,0,0,1,0,0h-317a0,0,0,0,1,0,0V177.07A8.45,8.45,0,0,1,105.29,168.61Z"/><line class="cls-8" x1="96.84" y1="230.95" x2="128.08" y2="230.95"/><line class="cls-8" x1="96.84" y1="313.28" x2="128.08" y2="313.28"/><line class="cls-9" x1="96.84" y1="273.87" x2="169.41" y2="273.87"/><circle class="cls-8" cx="138.08" cy="230.95" r="8.68"/><circle class="cls-8" cx="138.08" cy="313.28" r="8.68"/><circle class="cls-9" cx="178.09" cy="273.87" r="8.68"/><line class="cls-8" x1="413.85" y1="313.28" x2="382.61" y2="313.28"/><line class="cls-8" x1="413.85" y1="230.95" x2="382.61" y2="230.95"/><line class="cls-9" x1="413.85" y1="270.36" x2="341.28" y2="270.36"/><circle class="cls-8" cx="372.61" cy="313.28" r="8.68"/><circle class="cls-8" cx="372.61" cy="230.95" r="8.68"/><circle class="cls-9" cx="332.6" cy="270.36" r="8.68"/><path class="cls-10" d="M222.12,237.94a45.52,45.52,0,0,0,27.93,81.45"/><circle class="cls-8" cx="231.44" cy="230.95" r="8.68"/><path class="cls-11" d="M284.26,311.92a45.52,45.52,0,0,0-27.93-81.45"/><circle class="cls-9" cx="274.95" cy="318.91" r="8.68"/><polyline class="cls-9" points="169.41 147.95 169.41 118.61 138.24 87.45"/><polyline class="cls-8" points="348.35 147.95 348.35 118.61 379.52 87.45"/><line class="cls-12" x1="209.83" y1="147.6" x2="209.83" y2="106.95"/><line class="cls-12" x1="302.83" y1="147.6" x2="302.83" y2="106.95"/><line class="cls-13" x1="255.34" y1="147.6" x2="255.34" y2="62.95"/><circle class="cls-8" cx="133.13" cy="83.61" r="8.68"/><circle class="cls-12" cx="209.83" cy="97.95" r="8.68"/><circle class="cls-12" cx="302.83" cy="96.6" r="8.68"/><circle class="cls-13" cx="255.34" cy="54.27" r="8.68"/><circle class="cls-9" cx="382.61" cy="83.61" r="8.68"/></g></svg>